<svg width="39" height="39" viewBox="0 0 39 39" fill="none" xmlns="http://www.w3.org/2000/svg">
<g clip-path="url(#clip0)">
<path d="M38.9609 11.4661C38.8696 9.39389 38.5345 7.96925 38.0544 6.73479C37.5592 5.42444 36.7974 4.25128 35.7992 3.27603C34.8239 2.2856 33.6431 1.516 32.3479 1.02852C31.1063 0.548485 29.6891 0.213382 27.6169 0.122018C25.5292 0.0229155 24.8664 0 19.5714 0C14.2764 0 13.6137 0.0229155 11.5337 0.11428C9.46151 0.205645 8.03688 0.541045 6.80271 1.02078C5.49206 1.516 4.3189 2.27786 3.34366 3.27603C2.35323 4.25128 1.58392 5.43218 1.09615 6.72735C0.616112 7.96925 0.281009 9.38615 0.189645 11.4584C0.0905425 13.5461 0.067627 14.2088 0.067627 19.5038C0.067627 24.7988 0.0905425 25.4616 0.181907 27.5415C0.273272 29.6137 0.608672 31.0384 1.08871 32.2728C1.58392 33.5832 2.35323 34.7563 3.34366 35.7316C4.3189 36.722 5.4998 37.4916 6.79497 37.9791C8.03688 38.4591 9.45377 38.7942 11.5263 38.8856C13.6059 38.9773 14.269 38.9999 19.564 38.9999C24.859 38.9999 25.5217 38.9773 27.6017 38.8856C29.6739 38.7942 31.0985 38.4591 32.3327 37.9791C34.9537 36.9658 37.0259 34.8935 38.0393 32.2728C38.519 31.0309 38.8544 29.6137 38.9458 27.5415C39.0371 25.4616 39.06 24.7988 39.06 19.5038C39.06 14.2088 39.0523 13.5461 38.9609 11.4661ZM35.4489 27.3891C35.365 29.2938 35.0451 30.3223 34.7784 31.008C34.1231 32.707 32.7746 34.0555 31.0756 34.7108C30.3899 34.9775 29.354 35.2974 27.4567 35.381C25.3997 35.4727 24.7828 35.4953 19.5792 35.4953C14.3756 35.4953 13.7509 35.4727 11.7013 35.381C9.79661 35.2974 8.76809 34.9775 8.08241 34.7108C7.23692 34.3983 6.46731 33.9031 5.84264 33.2555C5.19505 32.6231 4.69984 31.8612 4.38735 31.0157C4.1207 30.3301 3.80078 29.2938 3.71715 27.3969C3.62549 25.3398 3.60287 24.7226 3.60287 19.519C3.60287 14.3154 3.62549 13.6907 3.71715 11.6414C3.80078 9.73673 4.1207 8.70821 4.38735 8.02252C4.69984 7.17673 5.19505 6.40742 5.85038 5.78246C6.48249 5.13487 7.24436 4.63965 8.09015 4.32747C8.77583 4.06081 9.81209 3.74089 11.709 3.65696C13.7661 3.5656 14.3833 3.54268 19.5866 3.54268C24.798 3.54268 25.4149 3.5656 27.4645 3.65696C29.3692 3.74089 30.3977 4.06081 31.0834 4.32747C31.9289 4.63965 32.6985 5.13487 33.3231 5.78246C33.9707 6.41487 34.4659 7.17673 34.7784 8.02252C35.0451 8.70821 35.365 9.74417 35.4489 11.6414C35.5403 13.6984 35.5632 14.3154 35.5632 19.519C35.5632 24.7226 35.5403 25.3321 35.4489 27.3891Z" fill="#284027"/>
<path d="M19.5723 9.48535C14.0413 9.48535 9.55371 13.9726 9.55371 19.5039C9.55371 25.0352 14.0413 29.5225 19.5723 29.5225C25.1035 29.5225 29.5908 25.0352 29.5908 19.5039C29.5908 13.9726 25.1035 9.48535 19.5723 9.48535ZM19.5723 26.0027C15.9841 26.0027 13.0735 23.0924 13.0735 19.5039C13.0735 15.9154 15.9841 13.0051 19.5723 13.0051C23.1608 13.0051 26.0711 15.9154 26.0711 19.5039C26.0711 23.0924 23.1608 26.0027 19.5723 26.0027Z" fill="#284027"/>
<path d="M32.3262 9.08912C32.3262 10.3807 31.279 11.428 29.9871 11.428C28.6955 11.428 27.6482 10.3807 27.6482 9.08912C27.6482 7.79722 28.6955 6.75024 29.9871 6.75024C31.279 6.75024 32.3262 7.79722 32.3262 9.08912Z" fill="#284027"/>
</g>
<defs>
<clipPath id="clip0">
<rect width="39" height="39" fill="white"/>
</clipPath>
</defs>
</svg>
