<svg width="39" height="39" viewBox="0 0 39 39" fill="none" xmlns="http://www.w3.org/2000/svg">
<path d="M37.0088 10.3614C36.5875 8.79507 35.3525 7.56033 33.7864 7.13856C30.9253 6.35571 19.4805 6.35571 19.4805 6.35571C19.4805 6.35571 8.03621 6.35571 5.17507 7.10888C3.63907 7.5302 2.37397 8.79529 1.95265 10.3614C1.19971 13.2223 1.19971 19.1555 1.19971 19.1555C1.19971 19.1555 1.19971 25.1185 1.95265 27.9495C2.37442 29.5156 3.60894 30.7504 5.1753 31.1722C8.06633 31.9552 19.481 31.9552 19.481 31.9552C19.481 31.9552 30.9253 31.9552 33.7864 31.2021C35.3527 30.7805 36.5875 29.5458 37.0093 27.9796C37.762 25.1185 37.762 19.1856 37.762 19.1856C37.762 19.1856 37.7921 13.2223 37.0088 10.3614ZM15.8368 24.6367V13.6742L25.3536 19.1555L15.8368 24.6367Z" fill="#284027"/>
</svg>
